<?xml version="1.0" encoding="UTF-8"?>
<svg width="1200pt" height="1200pt" version="1.1" viewBox="0 0 1200 1200" xmlns="http://www.w3.org/2000/svg">
 <path d="m56.25 412.5h940.91l-78.523 70.688 0.10938 0.16797c-11.418 10.293-18.75 25.051-18.75 41.664 0 31.07 25.18 56.25 56.25 56.25 14.457 0 27.523-5.6055 37.5-14.586l0.13281 0.14844 187.5-168.75-0.13281-0.16797c11.418-10.293 18.75-25.07 18.75-41.664s-7.332-31.367-18.75-41.664l0.13281-0.14844-187.5-168.75-0.13281 0.14844c-9.9766-8.9609-23.043-14.586-37.5-14.586-31.07 0-56.25 25.18-56.25 56.25 0 16.594 7.332 31.367 18.75 41.664l-0.13281 0.14844 78.547 70.688h-940.91c-31.07 0-56.25 25.18-56.25 56.25s25.18 56.25 56.25 56.25zm1087.5 375h-940.91l78.543-70.688-0.12891-0.13281c11.438-10.312 18.75-25.07 18.75-41.68 0-31.07-25.18-56.25-56.25-56.25-14.477 0-27.523 5.625-37.5 14.57l-0.13281-0.14844-187.5 168.75 0.13281 0.14844c-11.418 10.328-18.75 25.086-18.75 41.68s7.332 31.352 18.75 41.68l-0.13281 0.13281 187.5 168.75 0.13281-0.13281c9.9766 8.9648 23.043 14.57 37.5 14.57 31.07 0 56.25-25.18 56.25-56.25 0-16.594-7.332-31.367-18.75-41.68l0.13281-0.14844-78.547-70.672h940.91c31.07 0 56.25-25.18 56.25-56.25s-25.18-56.25-56.25-56.25z" fill="#6F6F6F"/>
</svg>
