<?xml version="1.0" encoding="UTF-8"?>
<svg width="1200pt" height="1200pt" version="1.1" viewBox="0 0 1200 1200" xmlns="http://www.w3.org/2000/svg">
 <path d="m600 512.4-60.844-89.473c-5.8125-8.5508-17.477-10.781-26.043-4.9688-8.5508 5.832-10.781 17.492-4.9688 26.062l62.305 91.629-337.82 109.97-76.332-113.19c43.105-14.008 193.57-62.906 193.57-62.906 9.8438-3.1875 15.242-13.781 12.039-23.625-3.1875-9.8438-13.781-15.227-23.625-12.039 0 0-150.47 48.902-193.58 62.906-11.211 3.6367-20.043 12.32-23.867 23.457-3.8438 11.117-2.2305 23.418 4.3516 33.168l77.191 114.43-88.086 130.59c-6.582 9.7656-8.2148 22.047-4.3711 33.188 3.8281 11.117 12.676 19.816 23.871 23.453l72.449 23.531v136.33c0 24.844 16.293 46.746 40.086 53.871 75.34 22.609 287.27 86.191 337.5 101.25 10.539 3.168 21.789 3.168 32.328 0 50.23-15.059 262.16-78.641 337.5-101.25 23.793-7.125 40.086-29.027 40.086-53.871v-136.33l72.449-23.531c11.195-3.6367 20.043-12.336 23.871-23.453 3.8438-11.141 2.2109-23.422-4.3711-33.188l-88.086-130.59 77.191-114.43c6.582-9.75 8.1953-22.051 4.3516-33.168-3.8242-11.137-12.656-19.82-23.867-23.457l-337.43-109.65c-15.863-5.1367-33.227 0.78516-42.602 14.586zm-0.32031 310.97-85.855 126.68c-9.3555 13.84-26.738 19.801-42.617 14.645l-227.46-73.914v124.14c0 8.2891 5.4375 15.582 13.367 17.965l337.5 101.25c1.3906 0.41016 2.832 0.67188 4.2773 0.75-1.2578-58.258 0.12891-236.44 0.78516-311.52zm-368.55 23.871 251.66 81.77 87.695-129.38-337.84-109.61-87.262 129.36 85.051 27.637c0.24219 0.074219 0.46875 0.15234 0.69531 0.22656zm738.43-0.22656 85.051-27.637-87.262-129.36-337.84 109.61 87.695 129.38 251.66-81.77c0.22656-0.074219 0.45312-0.15234 0.69531-0.22656zm-369.56-77.23 314.34-102-314.34-102.32zm443.7-237.36-76.332 113.19-337.82-109.97 76.723-112.86zm-577.46 9.5625c-5.5703-7.5586-10.277-15.152-14.137-22.746-4.6875-9.2227-15.996-12.898-25.219-8.2109-9.2266 4.6875-12.902 15.992-8.2148 25.219 4.7617 9.3359 10.539 18.695 17.383 27.977 6.1289 8.3242 17.867 10.105 26.211 3.9727 8.3242-6.1484 10.105-17.887 3.9766-26.211zm-27.414-76.52c0.1875-7.5547 1.293-14.887 3.3203-21.918 2.8477-9.9375-2.9062-20.344-12.863-23.195-9.9375-2.8477-20.344 2.9062-23.195 12.863-2.8672 10.051-4.4805 20.531-4.7617 31.312-0.24219 10.352 7.9336 18.957 18.281 19.199 10.352 0.26172 18.957-7.9102 19.219-18.262zm28.84-62.625c4.8164-4.4609 10.219-8.5859 16.125-12.32 8.7539-5.5312 11.379-17.117 5.8672-25.855-5.5312-8.7539-17.117-11.379-25.875-5.8672-7.9297 5.0039-15.133 10.535-21.602 16.535-7.5938 7.0312-8.043 18.902-1.0117 26.496s18.902 8.043 26.496 1.0117zm69.73-32.344c9.4297-1.7422 19.426-2.8672 29.961-3.3008 10.352-0.44922 18.375-9.207 17.945-19.535-0.43359-10.332-9.1875-18.375-19.539-17.945-12.375 0.52344-24.113 1.8555-35.191 3.8984-10.164 1.8945-16.914 11.684-15.02 21.844 1.875 10.184 11.66 16.914 21.844 15.039zm97.723-1.1055c15.996 0.1875 30.883-0.375 44.703-1.5938 10.312-0.91797 17.941-10.031 17.023-20.344-0.91797-10.293-10.031-17.926-20.344-17.008-12.656 1.1055-26.289 1.6328-40.949 1.4453-10.352-0.11328-18.844 8.1914-18.957 18.523-0.13281 10.352 8.1758 18.863 18.523 18.977zm106.33-13.09c18.562-5.6797 34.238-12.953 47.363-21.297 8.7188-5.5703 11.305-17.156 5.7383-25.895-5.5508-8.7188-17.156-11.309-25.895-5.7383-10.555 6.7109-23.211 12.488-38.176 17.062-9.8789 3.0391-15.469 13.52-12.43 23.418 3.0195 9.9023 13.52 15.469 23.398 12.449zm95.438-73.781c8.8516-18.297 12.246-37.648 11.383-56.305-0.48828-10.352-9.2812-18.336-19.613-17.852-10.332 0.48828-18.336 9.2656-17.852 19.594 0.60156 12.676-1.6875 25.82-7.6875 38.25-4.5 9.3203-0.59766 20.551 8.7188 25.051 9.3203 4.5 20.551 0.58203 25.051-8.7383zm-256.11-158.45c11.664-54.676 59.176-80.27 92.082-79.371 32.848 0.90234 51.129 28.219 4.6133 79.371h26.379c10.352 0 18.75 8.3984 18.75 18.75 0 10.348-8.3984 18.75-18.75 18.75h-26.023c46.066 50.906 27.785 78.074-4.9688 78.992-32.832 0.89844-80.215-24.582-92.008-78.992h-2.5508c-10.328 0-18.75-8.4023-18.75-18.75 0-10.352 8.4219-18.75 18.75-18.75zm244.16 35.848c-13.672-18.469-32.215-31.332-52.426-35.473-10.145-2.0625-20.062 4.4609-22.145 14.605-2.0625 10.145 4.4805 20.062 14.605 22.145 11.664 2.3789 21.938 10.387 29.832 21.055 6.168 8.3047 17.926 10.051 26.23 3.8984 8.3242-6.168 10.07-17.922 3.9023-26.23z" fill="#343643" fill-rule="evenodd"/>
</svg>
