<svg width="372" height="138" viewBox="0 0 372 138" fill="none" xmlns="http://www.w3.org/2000/svg">
<path d="M328.8 53.46L315.03 19.44L309.36 32.13L310.17 31.8602C310.17 32.13 297.75 57.7802 298.56 56.1602C298.56 55.8904 304.23 38.8802 303.96 39.9602L290.46 9.18018L269.13 46.7102L263.19 34.0202L240.24 67.5002V73.4403L248.07 63.4502V77.7602L244.02 85.0503L256.98 72.9003V75.6003L259.41 71.2805L255.09 63.4503H257.79L254.821 54.8102L260.49 47.5201L266.431 59.1301L288.031 23.2201V23.7602L281.55 37.8002L288.03 43.7403L285.06 37.26L292.351 46.1699L289.11 34.0199L290.46 34.8298L291.001 31.3199L295.32 44.8199C286.41 82.8899 289.651 69.6599 288.84 72.6299L293.16 66.1497L306.93 51.8397L310.71 56.9699L310.98 56.4299L312.6 51.57L325.02 68.85L329.07 63.9901L338.25 82.6201L341.22 79.9201L351.48 91.5301V97.1998L355.53 100.98H370.65L338.521 49.4101L328.8 53.46ZM337.71 72.63L337.44 67.7701L342.03 71.8201C341.76 71.5503 337.98 66.1503 337.17 65.3399L336.63 56.43L346.62 76.14L337.71 72.63Z" fill="#343643"/>
<path d="M313.95 63.45L309.9 58.3198V65.6099L301.26 71.2801L305.58 74.2499L313.95 63.45Z" fill="#343643"/>
<path d="M283.17 68.31V76.9501L273.45 86.1303H288.03L300.45 72.6303C299.64 73.1704 286.41 81.2704 286.95 81.0001V72.6303L283.17 68.31Z" fill="#343643"/>
<path d="M239.16 88.56C239.429 88.56 252.39 89.3699 279.66 98.2798C283.17 99.3599 319.35 111.51 319.62 111.51C310.71 106.92 302.88 101.52 281.01 94.2298C252.66 85.5901 239.43 88.56 239.16 88.56V88.56Z" fill="#343643"/>
<path d="M292.08 93.69C292.08 93.69 292.89 92.6098 294.78 91.5301C304.499 85.0499 319.35 92.6103 328.53 97.1999C338.249 102.33 352.29 109.62 363.9 109.35C366.06 109.35 367.41 108.81 367.41 108.81C366.06 108.27 363.36 111.51 330.69 93.6898C297.75 77.4898 293.43 93.1497 292.08 93.6898L292.08 93.69Z" fill="#343643"/>
<path d="M268.32 124.47C267.51 125.01 267.24 125.28 267.24 125.28C267.24 125.28 267.51 125.01 268.32 124.47C278.31 120.69 350.4 122.04 341.22 112.32L340.95 112.05C326.91 103.95 324.48 103.14 308.01 96.1202C308.28 96.39 333.12 110.97 336.9 113.4C326.1 116.1 277.77 118.8 268.32 124.47L268.32 124.47Z" fill="#343643"/>
<path d="M38.625 120.469C36.5417 122.24 34.2188 123.604 31.6562 124.562C29.0938 125.5 26.4271 125.969 23.6562 125.969C21.5312 125.969 19.4792 125.688 17.5 125.125C15.5417 124.583 13.7083 123.812 12 122.812C10.2917 121.792 8.72917 120.583 7.3125 119.188C5.89583 117.771 4.6875 116.208 3.6875 114.5C2.6875 112.771 1.90625 110.917 1.34375 108.938C0.802083 106.958 0.53125 104.906 0.53125 102.781C0.53125 100.656 0.802083 98.6146 1.34375 96.6562C1.90625 94.6979 2.6875 92.8646 3.6875 91.1562C4.6875 89.4271 5.89583 87.8646 7.3125 86.4688C8.72917 85.0521 10.2917 83.8438 12 82.8438C13.7083 81.8438 15.5417 81.0729 17.5 80.5312C19.4792 79.9688 21.5312 79.6875 23.6562 79.6875C26.4271 79.6875 29.0938 80.1667 31.6562 81.125C34.2188 82.0625 36.5417 83.4167 38.625 85.1875L33.9375 93C32.5833 91.625 31.0208 90.5521 29.25 89.7812C27.4792 88.9896 25.6146 88.5938 23.6562 88.5938C21.6979 88.5938 19.8542 88.9688 18.125 89.7188C16.4167 90.4688 14.9167 91.4896 13.625 92.7812C12.3333 94.0521 11.3125 95.5521 10.5625 97.2812C9.8125 98.9896 9.4375 100.823 9.4375 102.781C9.4375 104.76 9.8125 106.615 10.5625 108.344C11.3125 110.073 12.3333 111.583 13.625 112.875C14.9167 114.167 16.4167 115.188 18.125 115.938C19.8542 116.688 21.6979 117.062 23.6562 117.062C24.7812 117.062 25.875 116.927 26.9375 116.656C28 116.385 29.0104 116.01 29.9688 115.531V102.781H38.625V120.469Z" fill="#343643"/>
<path d="M77.0312 125H74.9688L71.6562 120.406C70.8438 121.135 69.9792 121.823 69.0625 122.469C68.1667 123.094 67.2188 123.646 66.2188 124.125C65.2188 124.583 64.1875 124.948 63.125 125.219C62.0833 125.49 61.0208 125.625 59.9375 125.625C57.5833 125.625 55.3646 125.229 53.2812 124.438C51.2188 123.646 49.4062 122.5 47.8438 121C46.3021 119.479 45.0833 117.625 44.1875 115.438C43.2917 113.25 42.8438 110.76 42.8438 107.969C42.8438 105.365 43.2917 102.979 44.1875 100.812C45.0833 98.625 46.3021 96.75 47.8438 95.1875C49.4062 93.625 51.2188 92.4167 53.2812 91.5625C55.3646 90.6875 57.5833 90.25 59.9375 90.25C61.0208 90.25 62.0938 90.3854 63.1562 90.6562C64.2188 90.9271 65.25 91.3021 66.25 91.7812C67.25 92.2604 68.1979 92.8229 69.0938 93.4688C70.0104 94.1146 70.8646 94.8125 71.6562 95.5625L74.9688 91.5938H77.0312V125ZM68.4375 107.969C68.4375 106.802 68.2083 105.677 67.75 104.594C67.3125 103.49 66.7083 102.521 65.9375 101.688C65.1667 100.833 64.2604 100.156 63.2188 99.6562C62.1979 99.1354 61.1042 98.875 59.9375 98.875C58.7708 98.875 57.6667 99.0729 56.625 99.4688C55.6042 99.8646 54.7083 100.448 53.9375 101.219C53.1875 101.99 52.5938 102.948 52.1562 104.094C51.7188 105.219 51.5 106.51 51.5 107.969C51.5 109.427 51.7188 110.729 52.1562 111.875C52.5938 113 53.1875 113.948 53.9375 114.719C54.7083 115.49 55.6042 116.073 56.625 116.469C57.6667 116.865 58.7708 117.062 59.9375 117.062C61.1042 117.062 62.1979 116.812 63.2188 116.312C64.2604 115.792 65.1667 115.115 65.9375 114.281C66.7083 113.427 67.3125 112.458 67.75 111.375C68.2083 110.271 68.4375 109.135 68.4375 107.969Z" fill="#343643"/>
<path d="M94.4062 125H85.875V100.031H81.7188V91.5312H85.875V89.9375C85.875 87.875 86.2604 85.9375 87.0312 84.125C87.8229 82.3125 88.8958 80.7396 90.25 79.4062C91.625 78.0521 93.2188 76.9896 95.0312 76.2188C96.8438 75.4271 98.7812 75.0312 100.844 75.0312H107.25V83.5312H100.844C99.9271 83.5312 99.0729 83.6979 98.2812 84.0312C97.5104 84.3438 96.8333 84.7917 96.25 85.375C95.6875 85.9375 95.2396 86.6146 94.9062 87.4062C94.5729 88.1771 94.4062 89.0208 94.4062 89.9375V91.5312H104.875V100.031H94.4062V125Z" fill="#343643"/>
<path d="M140.719 125H138.656L135.344 120.406C134.531 121.135 133.667 121.823 132.75 122.469C131.854 123.094 130.906 123.646 129.906 124.125C128.906 124.583 127.875 124.948 126.812 125.219C125.771 125.49 124.708 125.625 123.625 125.625C121.271 125.625 119.052 125.229 116.969 124.438C114.906 123.646 113.094 122.5 111.531 121C109.99 119.479 108.771 117.625 107.875 115.438C106.979 113.25 106.531 110.76 106.531 107.969C106.531 105.365 106.979 102.979 107.875 100.812C108.771 98.625 109.99 96.75 111.531 95.1875C113.094 93.625 114.906 92.4167 116.969 91.5625C119.052 90.6875 121.271 90.25 123.625 90.25C124.708 90.25 125.781 90.3854 126.844 90.6562C127.906 90.9271 128.938 91.3021 129.938 91.7812C130.938 92.2604 131.885 92.8229 132.781 93.4688C133.698 94.1146 134.552 94.8125 135.344 95.5625L138.656 91.5938H140.719V125ZM132.125 107.969C132.125 106.802 131.896 105.677 131.438 104.594C131 103.49 130.396 102.521 129.625 101.688C128.854 100.833 127.948 100.156 126.906 99.6562C125.885 99.1354 124.792 98.875 123.625 98.875C122.458 98.875 121.354 99.0729 120.312 99.4688C119.292 99.8646 118.396 100.448 117.625 101.219C116.875 101.99 116.281 102.948 115.844 104.094C115.406 105.219 115.188 106.51 115.188 107.969C115.188 109.427 115.406 110.729 115.844 111.875C116.281 113 116.875 113.948 117.625 114.719C118.396 115.49 119.292 116.073 120.312 116.469C121.354 116.865 122.458 117.062 123.625 117.062C124.792 117.062 125.885 116.812 126.906 116.312C127.948 115.792 128.854 115.115 129.625 114.281C130.396 113.427 131 112.458 131.438 111.375C131.896 110.271 132.125 109.135 132.125 107.969Z" fill="#343643"/>
<path d="M155.844 125H147.25V78.2188H155.844V125Z" fill="#343643"/>
<path d="M194.781 125H192.719L189.406 120.406C188.594 121.135 187.729 121.823 186.812 122.469C185.917 123.094 184.969 123.646 183.969 124.125C182.969 124.583 181.938 124.948 180.875 125.219C179.833 125.49 178.771 125.625 177.688 125.625C175.333 125.625 173.115 125.229 171.031 124.438C168.969 123.646 167.156 122.5 165.594 121C164.052 119.479 162.833 117.625 161.938 115.438C161.042 113.25 160.594 110.76 160.594 107.969C160.594 105.365 161.042 102.979 161.938 100.812C162.833 98.625 164.052 96.75 165.594 95.1875C167.156 93.625 168.969 92.4167 171.031 91.5625C173.115 90.6875 175.333 90.25 177.688 90.25C178.771 90.25 179.844 90.3854 180.906 90.6562C181.969 90.9271 183 91.3021 184 91.7812C185 92.2604 185.948 92.8229 186.844 93.4688C187.76 94.1146 188.615 94.8125 189.406 95.5625L192.719 91.5938H194.781V125ZM186.188 107.969C186.188 106.802 185.958 105.677 185.5 104.594C185.062 103.49 184.458 102.521 183.688 101.688C182.917 100.833 182.01 100.156 180.969 99.6562C179.948 99.1354 178.854 98.875 177.688 98.875C176.521 98.875 175.417 99.0729 174.375 99.4688C173.354 99.8646 172.458 100.448 171.688 101.219C170.938 101.99 170.344 102.948 169.906 104.094C169.469 105.219 169.25 106.51 169.25 107.969C169.25 109.427 169.469 110.729 169.906 111.875C170.344 113 170.938 113.948 171.688 114.719C172.458 115.49 173.354 116.073 174.375 116.469C175.417 116.865 176.521 117.062 177.688 117.062C178.854 117.062 179.948 116.812 180.969 116.312C182.01 115.792 182.917 115.115 183.688 114.281C184.458 113.427 185.062 112.458 185.5 111.375C185.958 110.271 186.188 109.135 186.188 107.969Z" fill="#343643"/>
<path d="M225.125 107.969C225.125 106.802 224.896 105.677 224.438 104.594C224 103.49 223.396 102.521 222.625 101.688C221.854 100.833 220.948 100.156 219.906 99.6562C218.885 99.1354 217.792 98.875 216.625 98.875C215.458 98.875 214.354 99.0729 213.312 99.4688C212.292 99.8646 211.396 100.448 210.625 101.219C209.875 101.99 209.281 102.948 208.844 104.094C208.406 105.219 208.188 106.51 208.188 107.969C208.188 109.365 208.406 110.625 208.844 111.75C209.281 112.854 209.875 113.802 210.625 114.594C211.396 115.385 212.292 116 213.312 116.438C214.354 116.854 215.458 117.062 216.625 117.062C217.792 117.062 218.885 116.812 219.906 116.312C220.948 115.792 221.854 115.115 222.625 114.281C223.396 113.427 224 112.458 224.438 111.375C224.896 110.271 225.125 109.135 225.125 107.969ZM233.719 120.781C233.719 123.135 233.271 125.344 232.375 127.406C231.479 129.469 230.25 131.271 228.688 132.812C227.146 134.354 225.333 135.573 223.25 136.469C221.188 137.365 218.979 137.812 216.625 137.812L212.344 137.75V129.219L216.562 129.281C217.896 129.281 219.031 129.104 219.969 128.75C220.906 128.417 221.698 127.948 222.344 127.344C222.99 126.76 223.5 126.083 223.875 125.312C224.271 124.542 224.583 123.729 224.812 122.875C224.479 123.417 224 123.865 223.375 124.219C222.75 124.552 222.052 124.823 221.281 125.031C220.531 125.26 219.74 125.417 218.906 125.5C218.094 125.583 217.333 125.625 216.625 125.625C214.271 125.625 212.052 125.219 209.969 124.406C207.906 123.594 206.094 122.438 204.531 120.938C202.99 119.417 201.771 117.562 200.875 115.375C199.979 113.188 199.531 110.719 199.531 107.969C199.531 105.448 199.979 103.104 200.875 100.938C201.771 98.7708 202.99 96.8958 204.531 95.3125C206.094 93.7292 207.906 92.4896 209.969 91.5938C212.052 90.6979 214.271 90.25 216.625 90.25C217.708 90.25 218.781 90.3854 219.844 90.6562C220.906 90.9271 221.938 91.3021 222.938 91.7812C223.938 92.2604 224.885 92.8229 225.781 93.4688C226.698 94.1146 227.552 94.8125 228.344 95.5625L231.656 91.5938H233.719V120.781Z" fill="#343643"/>
</svg>
