<svg xmlns="http://www.w3.org/2000/svg" width="1223" height="1223" viewBox="0 0 1223 1223" fill="none">
<path d="M611.3 1162.7C915.83 1162.7 1162.7 915.83 1162.7 611.3C1162.7 306.77 915.83 59.9 611.3 59.9C306.77 59.9 59.8999 306.77 59.8999 611.3C59.8999 915.83 306.77 1162.7 611.3 1162.7Z" fill="url(#paint0_linear_15_1838)"/>
<path opacity="0.18" d="M605.4 602.7C458.1 536.4 298.7 452.5 127 350.8C116.4 370.4 107 390.6 98.8999 411.5C274.6 488.5 443.5 552.3 605.4 602.7Z" fill="white"/>
<path opacity="0.18" d="M605.4 602.7C491 513.1 352.9 397.9 191 257C179.4 270.7 168.6 284.9 158.4 299.7C325.3 422.5 474.3 523.5 605.4 602.7Z" fill="white"/>
<path opacity="0.18" d="M605.4 602.7C515.8 488.4 400.7 350.3 259.9 188.6C247.4 199 235.4 209.9 223.9 221.3C380.6 378 507.8 505.1 605.4 602.7Z" fill="white"/>
<path opacity="0.18" d="M605.4 602.7C539.2 455.7 455.4 296.5 354.1 125.3C336.4 134.7 319.3 145 302.9 156.2C425.4 322.9 526.2 471.8 605.4 602.7Z" fill="white"/>
<path opacity="0.18" d="M1121.9 407.1C1113.4 385.9 1103.6 365.3 1092.6 345.5C917.6 449.5 755.2 535.2 605.4 602.7C770.4 551.3 942.6 486.1 1121.9 407.1Z" fill="white"/>
<g opacity="0.18">
<path opacity="0.18" d="M1060.2 294C1049.7 279.2 1038.4 264.8 1026.5 251.1C861.7 394.7 721.4 511.9 605.4 602.7C738.5 522.2 890.2 419.3 1060.2 294Z" fill="white"/>
</g>
<g opacity="0.18">
<path opacity="0.18" d="M992.7 215.5C980.9 204.1 968.6 193.3 955.8 183C812.8 347.1 696 487.1 605.4 602.7C704.2 503.9 833.3 374.8 992.7 215.5Z" fill="white"/>
</g>
<g opacity="0.18">
<path opacity="0.18" d="M911.8 150.9C895 139.9 877.5 129.8 859.5 120.6C756.9 293.6 672.2 454.3 605.4 602.7C685.4 470.4 787.6 319.8 911.8 150.9Z" fill="white"/>
</g>
<g opacity="0.18">
<path opacity="0.18" d="M797.6 93.9C774.4 85.5 750.5 78.7 725.9 73.4C677.4 252.5 637.2 429 605.4 602.7C656.1 440.1 720.2 270.4 797.6 93.9Z" fill="white"/>
</g>
<g opacity="0.18">
<path opacity="0.18" d="M605.4 602.7C549.2 422.2 480.5 254.4 391.3 56.8001L474.5 35.6001C527.7 227.7 571.3 416.8 605.4 602.7Z" fill="white"/>
<path opacity="0.18" d="M605.4 602.7C594 414 579.4 225 561.8 35.6001H649C631.4 225 616.8 414 605.4 602.7Z" fill="white"/>
<path opacity="0.18" d="M605.4 602.7C791.4 568.6 980.4 525 1172.6 471.8V559.1C983.2 576.8 794.1 591.3 605.4 602.7Z" fill="white"/>
<path opacity="0.18" d="M605.4 602.7C416.7 591.3 227.6 576.7 38.2 559.1V471.8C230.4 525 419.4 568.6 605.4 602.7Z" fill="white"/>
</g>
<path d="M1089.9 648.6L1021.6 509.4H997.4L966.4 450.1L970.8 405L875.3 278.2L844 310.1L799 246L739.3 253.3L694.9 197.6L660.4 189.5L612.4 90.1001L460.1 244.1L368.2 200.9L317 324.3L291.7 341.9L265.4 429L181.6 474.4L110.3 644.9L62.5999 666.8C90.2999 945.3 325.5 1162.7 611.3 1162.7C897.3 1162.7 1132.5 944.9 1160 666.1L1089.9 648.6Z" fill="#131313"/>
<path d="M189.9 691H227.4V803.7H272.5V835.6H189.9V691Z" fill="#FFCB07"/>
<path d="M366.5 691V722.9H321.9V747H364.2V778.9H321.9V803.8H366.5V835.7H284.4V691H366.5Z" fill="#FFCB07"/>
<path d="M416.2 691V750.6L462.2 691H508.6L451.2 759.5L513.8 835.6H465.2L416.2 773V835.6H378.7V691H416.2Z" fill="#FFCB07"/>
<path d="M522.9 691H560.4V835.5H522.9V691Z" fill="#FFCB07"/>
<path d="M670.6 722.9H639.8V835.6H602.3V722.9H571.5V691H670.5V722.9H670.6Z" fill="#FFCB07"/>
<path d="M765 691V722.9H720.4V747H762.7V778.9H720.4V803.8H765V835.7H682.9V691H765Z" fill="#FFCB07"/>
<path d="M885.8 787.2V831.6C872.7 836.4 861.8 838.8 853.3 838.8C830.8 838.8 812.1 831.6 797.4 817.1C790.5 810.2 785.1 802 781.3 792.7C777.5 783.4 775.6 774 775.6 764.4C775.6 754.4 777.6 744.8 781.6 735.4C785.6 726 790.9 717.9 797.5 711.1C812.2 696.1 830.4 688.6 852.1 688.6C862.5 688.6 873.8 691.1 885.9 696V740.9C877.4 730.4 866.5 725.1 853.2 725.1C842.9 725.1 834.3 728.3 827.2 734.6C818.8 742.4 814.6 752.3 814.6 764.3C814.6 775.7 818.5 785.1 826.3 792.5C833.4 799.1 842.3 802.5 853.2 802.5C865.7 802.4 876.6 797.4 885.8 787.2Z" fill="#FFCB07"/>
<path d="M935.7 691V745H989.9V691H1027.6V835.5H989.9V777H935.7V835.5H898.2V691H935.7Z" fill="#FFCB07"/>
<g opacity="1">
<path opacity="1" d="M189.9 691H227.4V803.7H272.5V835.6H189.9V691Z" fill="#FFFFFF"/>
<path opacity="1" d="M366.5 691V722.9H321.9V747H364.2V778.9H321.9V803.8H366.5V835.7H284.4V691H366.5Z" fill="#FFFFFF"/>
<path opacity="1" d="M416.2 691V750.6L462.2 691H508.6L451.2 759.5L513.8 835.6H465.2L416.2 773V835.6H378.7V691H416.2Z" fill="#FFFFFF"/>
<path opacity="1" d="M522.9 691H560.4V835.5H522.9V691Z" fill="#FFFFFF"/>
<path opacity="1" d="M670.6 722.9H639.8V835.6H602.3V722.9H571.5V691H670.5V722.9H670.6Z" fill="#FFFFFF"/>
<path opacity="1" d="M765 691V722.9H720.4V747H762.7V778.9H720.4V803.8H765V835.7H682.9V691H765Z" fill="#FFFFFF"/>
<path opacity="1" d="M885.8 787.2V831.6C872.7 836.4 861.8 838.8 853.3 838.8C830.8 838.8 812.1 831.6 797.4 817.1C790.5 810.2 785.1 802 781.3 792.7C777.5 783.4 775.6 774 775.6 764.4C775.6 754.4 777.6 744.8 781.6 735.4C785.6 726 790.9 717.9 797.5 711.1C812.2 696.1 830.4 688.6 852.1 688.6C862.5 688.6 873.8 691.1 885.9 696V740.9C877.4 730.4 866.5 725.1 853.2 725.1C842.9 725.1 834.3 728.3 827.2 734.6C818.8 742.4 814.6 752.3 814.6 764.3C814.6 775.7 818.5 785.1 826.3 792.5C833.4 799.1 842.3 802.5 853.2 802.5C865.7 802.4 876.6 797.4 885.8 787.2Z" fill="#FFFFFF"/>
<path opacity="1" d="M935.7 691V745H989.9V691H1027.6V835.5H989.9V777H935.7V835.5H898.2V691H935.7Z" fill="#FFFFFF"/>
</g>
<path d="M903.1 635.3L899.8 644.9H1029.4L1011.8 605.6C1014.3 602.8 1015.9 599.1 1015.9 595.1C1015.9 586.5 1008.9 579.4 1000.2 579.4C999.8 579.4 999.5 579.4 999.1 579.5L986.8 553.3H964.6L926.4 480C929.6 477.1 931.7 472.9 931.7 468.3C931.7 461.4 927.2 455.6 921.1 453.5L924.9 425.4L869 347.4L841.7 390.6L774.5 303.2L727.4 304.8C725.2 298.8 719.4 294.5 712.7 294.5C710.2 294.5 707.9 295.1 705.8 296.1L665 254L628.9 248.7L602.4 164.6L481.4 306.5C479.7 305.8 477.8 305.4 475.8 305.4C471.3 305.4 467.3 307.3 464.4 310.3L401 279.9L354.1 380.9L363.2 413.3L331.3 426.3L314 467.5C313.8 467.5 313.6 467.5 313.4 467.5C306 467.5 299.8 472.6 298.2 479.5L222 519L177.8 645.6H242.9L246.2 636H191.3L229.8 525.8L299.2 489.8C300.4 492.3 302.1 494.4 304.3 495.9L260.2 645.5H269.6L313.4 498.8C322 498.8 329 491.8 329 483.1C329 478.1 326.6 473.6 323 470.8L338.6 433.7L365.8 422.6L382.3 481.2C378.3 484 375.6 488.7 375.6 494C375.6 502.3 382.1 509.1 390.2 509.6L417.7 635.9L342.7 636L329.4 571.9H319.6L334.9 645.6L429.6 645.5L399.6 507.3C404 504.5 407 499.6 407 494C407 485.4 400.1 478.5 391.5 478.3L364.3 381.7L405.6 292.7L460.3 318.9C460.2 319.6 460.1 320.3 460.1 321C460.1 329.4 466.7 336.2 475 336.6L487.8 394.3C482.8 396.9 479.3 402.2 479.3 408.2C479.3 411.2 480.2 414.1 481.7 416.5L416 475.7L422.4 482.8L489.1 422.8C491 423.5 493 423.9 495 423.9C497.4 423.9 499.7 423.3 501.8 422.3L570.3 485.1V514C564 516 559.4 521.9 559.4 528.9C559.4 537.5 566.4 544.6 575.1 544.6C582 544.6 587.8 540.2 589.9 534L650.3 530.5L676.3 567.8C674.2 570.5 673 573.8 673 577.4C673 581.7 674.7 585.6 677.6 588.4L646.3 635.3H451.6L445.1 644.9H651.5L686.3 592.8C687.1 592.9 688 593 688.8 593C696.4 593 702.7 587.6 704.1 580.5H733.1L859.5 380.5V466.9L844.4 489.1C842.4 488.2 840.2 487.7 837.9 487.7C829.3 487.7 822.2 494.7 822.2 503.4C822.2 512 829.2 519.1 837.9 519.1C839 519.1 840 519 841.1 518.8L882.8 597.2L870.2 635.5H678L672 645.1H877L893 596.4L849.3 514.2C851.9 511.4 853.5 507.7 853.5 503.6C853.5 500.8 852.8 498.2 851.5 495.9L869 469.8V362.4L914.8 428.6L911.4 453.4C905 455.4 900.3 461.3 900.3 468.4C900.3 477 907.3 484.1 916 484.1C916.5 484.1 917.1 484.1 917.6 484L958.8 562.9H980.7L990.2 583.1C986.8 586 984.6 590.3 984.6 595.1C984.6 603.7 991.6 610.8 1000.3 610.8C1001.4 610.8 1002.5 610.7 1003.5 610.5L1014.7 635.4H903.1V635.3ZM313.4 489.2C310 489.2 307.3 486.5 307.3 483.1C307.3 479.7 310 477 313.4 477C316.8 477 319.5 479.7 319.5 483.1C319.5 486.5 316.8 489.2 313.4 489.2ZM397.4 494C397.4 497.4 394.7 500.1 391.3 500.1C387.9 500.1 385.2 497.4 385.2 494C385.2 490.6 387.9 487.9 391.3 487.9C394.7 487.9 397.4 490.6 397.4 494ZM712.7 304C716.1 304 718.8 306.7 718.8 310.1C718.8 313.5 716.1 316.2 712.7 316.2C709.3 316.2 706.6 313.5 706.6 310.1C706.6 306.8 709.4 304 712.7 304ZM698.9 302.7C697.8 304.7 697.2 307.1 697.1 309.5L641.1 324.3L609.4 300.5C609.6 299.4 609.8 298.3 609.8 297.2C609.8 293.4 608.5 290 606.2 287.3L627.4 258.2L660.4 263L698.9 302.7ZM600.2 297.2C600.2 300.6 597.5 303.3 594.1 303.3C590.7 303.3 588 300.6 588 297.2C588 293.8 590.7 291.1 594.1 291.1C597.5 291.1 600.2 293.8 600.2 297.2ZM469.8 321C469.8 317.6 472.5 314.9 475.9 314.9C479.3 314.9 482 317.6 482 321C482 324.4 479.3 327.1 475.9 327.1C472.5 327.1 469.8 324.3 469.8 321ZM495 414.3C491.6 414.3 488.9 411.6 488.9 408.2C488.9 404.8 491.6 402.1 495 402.1C498.4 402.1 501.1 404.8 501.1 408.2C501.1 411.6 498.4 414.3 495 414.3ZM575.1 535C571.7 535 569 532.3 569 528.9C569 525.5 571.7 522.8 575.1 522.8C578.5 522.8 581.2 525.5 581.2 528.9C581.2 532.3 578.5 535 575.1 535ZM688.8 583.4C685.4 583.4 682.7 580.7 682.7 577.3C682.7 573.9 685.4 571.2 688.8 571.2C692.2 571.2 694.9 573.9 694.9 577.3C694.8 580.7 692.1 583.4 688.8 583.4ZM727.8 570.9H703C700.5 565.5 695.1 561.6 688.7 561.6C687.2 561.6 685.7 561.8 684.2 562.3L655.1 520.6L590 524.3C588.5 519.4 584.7 515.5 579.8 513.9V481L508.8 415.8C510 413.5 510.7 411 510.7 408.2C510.7 400.3 504.9 393.8 497.3 392.7L484.3 334C488.6 331.2 491.5 326.4 491.5 320.9C491.5 317.7 490.5 314.8 488.9 312.3L598.4 183.9L619.9 252.1L598.1 282C596.8 281.7 595.5 281.5 594.1 281.5C585.5 281.5 578.4 288.5 578.4 297.2C578.4 305.8 585.4 312.9 594.1 312.9C598.1 312.9 601.8 311.4 604.5 308.9L633.3 330.5L577.9 404.3C576.3 403.7 574.6 403.4 572.7 403.4C564.1 403.4 557 410.4 557 419.1C557 427.7 564 434.8 572.7 434.8C581.3 434.8 588.4 427.8 588.4 419.1C588.4 415.8 587.3 412.7 585.5 410.1L642.9 333.7L699.6 318.7C700.7 320.3 702 321.7 703.6 322.8L672.8 392L699 477.2C694.9 480 692.3 484.7 692.3 490C692.3 498.6 699.3 505.7 708 505.7C716.6 505.7 723.7 498.7 723.7 490C723.7 481.4 716.8 474.5 708.3 474.3L683 392.6L712.8 325.8C719.9 325.8 726 320.9 727.8 314.3L770 312.9L836.3 399.2L727.8 570.9ZM578.8 419.1C578.8 422.5 576.1 425.2 572.7 425.2C569.3 425.2 566.6 422.5 566.6 419.1C566.6 415.7 569.3 413 572.7 413C576.1 413 578.8 415.8 578.8 419.1ZM714 490.1C714 493.5 711.3 496.2 707.9 496.2C704.5 496.2 701.8 493.5 701.8 490.1C701.8 486.7 704.5 484 707.9 484C711.3 484 714 486.7 714 490.1ZM831.8 503.3C831.8 499.9 834.5 497.2 837.9 497.2C841.3 497.2 844 499.9 844 503.3C844 506.7 841.3 509.4 837.9 509.4C834.5 509.4 831.8 506.7 831.8 503.3ZM910 468.3C910 464.9 912.7 462.2 916.1 462.2C919.5 462.2 922.2 464.9 922.2 468.3C922.2 471.7 919.5 474.4 916.1 474.4C912.7 474.4 910 471.7 910 468.3ZM994.2 595.1C994.2 591.7 996.9 589 1000.3 589C1003.7 589 1006.4 591.7 1006.4 595.1C1006.4 598.5 1003.7 601.2 1000.3 601.2C996.9 601.2 994.2 598.4 994.2 595.1Z" fill="#FFFFFF"/>
<path d="M885.5 1050.4L883 1052.9L867.5 1068.4H867.4V1068.5L840.9 1095L823 1095.1L824.3 1076.6L865.5 1035.4L868 1032.9L865.5 1030.4L823.1 988L823 970.1L841.5 971.4L883 1012.9L885.5 1015.4L888 1012.9L929.2 971.7L948 970.5L947.1 988.9L921.2 1014.8L905.5 1030.5L903 1033L905.5 1035.5L929.6 1059.6C930.6 1058.9 931.5 1058.2 932.5 1057.5L925.2 1050.2H942.3C943.8 1049 945.4 1047.9 946.9 1046.7H921.7L908 1032.9L922.7 1018.2H958.9L969.1 1028.6C970 1027.8 970.9 1027.1 971.8 1026.3L962.7 1017L986.2 989.3H950.7L951.8 966.7L929 968.2V932L901.3 955.5L884.7 939.3L869.1 955.5L841.3 932V967.9L819.4 966.4L819.5 989.3H784L807.5 1017.1L792 1032.9L808.2 1048.4L784.1 1076.8H820.7L819.2 1098.6L841.3 1098.5V1110.7C842.5 1110.2 843.7 1109.6 844.8 1109.1V1096L867.4 1073.4V1097.8C868.6 1097.2 869.8 1096.5 870.9 1095.9V1069.9L885.4 1055.4L899.3 1069.3V1079.5C900.5 1078.8 901.7 1078 902.8 1077.3V1072.8L905.6 1075.6C906.6 1075 907.6 1074.3 908.6 1073.7L888 1052.9L885.5 1050.4ZM978.6 992.8L960 1014.7H926.3L948.2 992.8H978.6V992.8ZM902.9 958.7L925.4 939.6V970.4L902.9 992.9V958.7ZM870.9 958.6L884.7 944.3L899.3 958.6V996.3H899.5L885.5 1010.3L871 995.8V958.6H870.9ZM844.9 939.6L867.5 958.7V992.2L844.9 969.6V939.6ZM791.7 992.8H822.8L844.7 1014.7H810.3L791.7 992.8ZM797.1 1032.8L811.4 1018.2H848.2L862.9 1032.9L849.1 1046.7V1046.6H811.3L797.1 1032.8ZM791.7 1073.3L811.4 1050.1H845.7L822.5 1073.3H791.7Z" fill="white"/>
<path d="M759.6 1115.8V1083.8L737 1060.4H703.8V1027.2L680.4 1004.6H648.4V972.6L611.3 934.2L574.2 971.3V1004.5H541L517.8 1027.7V1060.4H485.1L463 1082.5V1115.7H429.7L419 1126.5C420.9 1127.2 422.8 1127.9 424.8 1128.6L432.1 1121.3H468.6V1084.8L487.4 1066H523.3V1030.1L543.2 1010.2H579.7V973.7L611.2 942.2L642.7 973.7V1010.2H679.2L698 1029.5V1066H734.5L753.8 1084.8V1121.3H790.3L797.6 1128.6C799.4 1127.9 801.2 1127.3 803 1126.6L791.3 1115.7H759.6V1115.8Z" fill="white"/>
<path d="M711.6 1132.9L694.9 1115.9L720.6 1085.5H681.9L683.1 1061.4L658.8 1063V1023.6L628.5 1049.3L610.8 1032L594.2 1049.3L563.9 1023.6V1062.7L540.6 1061.1L540.8 1085.5H501.9L527.7 1115.9L511.1 1132.9L528.3 1149.4L524.2 1154.3C526.3 1154.6 528.5 1155 530.7 1155.3L533.4 1152.1H567.3L560.5 1158.9C562.9 1159.1 565.3 1159.3 567.8 1159.5L594.4 1132.9L546.4 1084.9L546.3 1067.2L564.7 1068.4L611.8 1115.5L658.7 1068.6L677.4 1067.4L676.5 1085.5L629 1132.9L655.6 1159.5C658 1159.3 660.4 1159.1 662.8 1158.9L656.1 1152.2H689.2L691.9 1155.4C694.1 1155.1 696.2 1154.8 698.4 1154.4L694.3 1149.6L711.6 1132.9ZM586.4 1132.9L572.7 1146.6H533.2L519 1132.8L533.3 1118.2H571.7L586.4 1132.9ZM566.1 1112.6H532.1L514 1091.1H544.7L566.1 1112.6ZM591.6 1087.5L569.4 1065.3V1035.6L591.6 1054.4V1087.5ZM625.5 1093.8L611.7 1107.6L597.2 1093.1V1054.3L611 1040L625.6 1054.3V1093.8H625.5ZM653.2 1066.1L631.1 1088.2V1054.4L653.2 1035.6V1066.1ZM678.7 1091.1H708.7L690.5 1112.6H657.2L678.7 1091.1ZM650.6 1146.5L636.9 1132.8L651.6 1118.1H689.3L703.6 1132.7L689.3 1146.5H650.6Z" fill="white"/>
<path d="M405.6 1098.9L404.2 1076.8H440.3L416.2 1048.4L432.4 1032.9L416.7 1017L440.2 989.3H404.8L405.9 966.7L383.1 968.2V932L355.4 955.5L338.8 939.3L323.2 955.5L295.5 932V967.9L273.6 966.4L273.7 989.3H238.2L261.7 1017.1L251.8 1027.2C252.7 1028 253.6 1028.7 254.5 1029.5L265.5 1018.3H302.3L317 1033L303.2 1046.8V1046.7H275.6C277.1 1047.9 278.7 1049.1 280.2 1050.2H299.8L291.5 1058.5C292.5 1059.2 293.4 1059.9 294.4 1060.6L322 1033L277.2 988.2L277.1 970.3L295.6 971.6L339.6 1015.6L383.3 971.9L402.1 970.7L401.2 989.1L357.1 1033.2L400.6 1076.7L401.8 1095.5L383.4 1094.6L339.5 1050.7L321.5 1068.7H321.4V1068.8L315.3 1074.9C316.3 1075.6 317.3 1076.2 318.4 1076.8L321.5 1073.7V1078.7C322.7 1079.4 323.9 1080.2 325 1080.9V1070L339.5 1055.5L353.4 1069.4V1097C354.6 1097.6 355.8 1098.2 356.9 1098.9V1072.9L379.4 1095.4V1110C380.6 1110.5 381.8 1111.1 382.9 1111.6V1097.9L405.6 1098.9ZM298.8 1014.7H264.4L245.8 992.8H276.9L298.8 1014.7ZM321.5 992.3L298.9 969.7V939.6L321.5 958.7V992.3ZM339.6 1010.4L325 995.8V958.6L338.8 944.3L353.4 958.6V996.3H353.6L339.6 1010.4ZM379.5 970.4L357 992.9V958.7L379.5 939.6V970.4ZM402.2 992.8H432.6L414.1 1014.7H380.4L402.2 992.8ZM362.1 1032.9L376.8 1018.2H413L427.3 1032.8L413 1046.6H375.8L362.1 1032.9ZM379.3 1050.1H413L432.7 1073.3H402.6L379.3 1050.1Z" fill="white"/>
<path fill-rule="evenodd" clip-rule="evenodd" d="M130 880C140.998 899.76 155.409 917.371 172.405 932H419H419.595H788.405H793.905H1035.59C1052.59 917.371 1067 899.76 1078 880H751.5H746H462H461.405H130Z" fill="#CD2027"/>
<path d="M1174.2 373.5C1158.9 337.3 1139.9 302.4 1117.9 269.7C1096.1 237.4 1071 207 1043.3 179.3C1015.7 151.7 985.3 126.6 952.9 104.7C920.2 82.6 885.3 63.7 849.1 48.4C773.7 16.5 693.7 0.400024 611.3 0.400024C528.9 0.400024 448.8 16.6 373.5 48.4C337.3 63.7 302.4 82.7 269.7 104.7C237.4 126.5 207 151.6 179.3 179.3C151.7 206.9 126.6 237.3 104.7 269.7C82.5999 302.4 63.6999 337.3 48.3999 373.5C16.4999 448.9 0.399902 528.9 0.399902 611.3C0.399902 693.7 16.5999 773.8 48.3999 849.1C63.6999 885.3 82.6999 920.2 104.7 952.9C126.5 985.2 151.6 1015.6 179.3 1043.3C206.9 1070.9 237.3 1096 269.7 1117.9C302.4 1140 337.3 1158.9 373.5 1174.2C448.9 1206.1 528.9 1222.2 611.3 1222.2C693.7 1222.2 773.8 1206 849.1 1174.2C885.3 1158.9 920.2 1139.9 952.9 1117.9C985.2 1096.1 1015.6 1071 1043.3 1043.3C1070.9 1015.7 1096 985.3 1117.9 952.9C1140 920.2 1158.9 885.3 1174.2 849.1C1206.1 773.7 1222.2 693.7 1222.2 611.3C1222.2 528.9 1206 448.8 1174.2 373.5ZM48.3999 373.5C16.4999 448.9 0.399902 528.9 0.399902 611.3L48.3999 373.5ZM1222.2 611.3C1222.2 528.9 1206 448.8 1174.2 373.5L1222.2 611.3ZM1161.2 611.3C1161.2 914.5 914.5 1161.2 611.3 1161.2C308.1 1161.2 61.3999 914.5 61.3999 611.3C61.3999 308.1 308.1 61.4 611.3 61.4C914.5 61.4 1161.2 308.1 1161.2 611.3Z" fill="#131313"/>
<path d="M1030.6 505L1027.9 499.4H1021.7H1003.6L976.8 448.1L980.7 406L981.1 402.1L978.8 399L883.3 272.2L876.3 262.9L868.2 271.2L845.3 294.5L807.2 240.2L803.8 235.3L797.8 236L743.7 242.6L702.8 191.3L700.6 188.6L697.2 187.8L667.3 180.8L621.3 85.7L615.1 73L605.1 83.1L458 232L372.5 191.8L363 187.3L359 197L308.9 317.7L286 333.6L283.2 335.6L282.2 338.9L257 422.2L176.9 465.6L173.8 467.3L172.4 470.6L102.6 637.5L63.2 655.6C63.5 659.1 63.7999 662.7 64.0999 666.2L110.3 645L181.6 474.5L265.4 429.1L291.8 342L317 324.3L368.2 200.9L460.1 244.1L612.3 90.2L660.3 189.6L694.8 197.7L739.2 253.4L798.9 246.1L843.9 310.2L875.2 278.4L970.8 405L966.5 450.1L997.5 509.4H1021.7L1089.9 648.6L1158.5 665.8C1158.8 662.4 1159.1 659.1 1159.4 655.7L1096.8 640.1L1030.6 505Z" fill="white"/>
<path d="M600.8 1161.1C603.4 1161.1 606 1161.2 608.6 1161.2L611.7 1158.1L614.8 1161.2C617.4 1161.2 620 1161.2 622.6 1161.1L611.8 1150.3L600.8 1161.1Z" fill="white"/>
<defs>
<linearGradient id="paint0_linear_15_1838" x1="611.284" y1="59.8586" x2="611.284" y2="1162.71" gradientUnits="userSpaceOnUse">
<stop stop-color="#FFE500"/>
<stop offset="0.1097" stop-color="#FCCD13"/>
<stop offset="0.3557" stop-color="#F59927"/>
<stop offset="0.5766" stop-color="#F2712B"/>
<stop offset="0.7643" stop-color="#EF4D2D"/>
<stop offset="0.9115" stop-color="#EE2F2D"/>
<stop offset="1" stop-color="#ED1F2D"/>
</linearGradient>
<linearGradient id="paint1_linear_15_1838" x1="231.181" y1="691.034" x2="231.181" y2="835.573" gradientUnits="userSpaceOnUse">
<stop stop-color="#FFE500"/>
<stop offset="0.1097" stop-color="#FCCD13"/>
<stop offset="0.3557" stop-color="#F59927"/>
<stop offset="0.5766" stop-color="#F2712B"/>
<stop offset="0.7643" stop-color="#EF4D2D"/>
<stop offset="0.9115" stop-color="#EE2F2D"/>
<stop offset="1" stop-color="#ED1F2D"/>
</linearGradient>
<linearGradient id="paint2_linear_15_1838" x1="325.44" y1="691.034" x2="325.44" y2="835.573" gradientUnits="userSpaceOnUse">
<stop stop-color="#FFE500"/>
<stop offset="0.1097" stop-color="#FCCD13"/>
<stop offset="0.3557" stop-color="#F59927"/>
<stop offset="0.5766" stop-color="#F2712B"/>
<stop offset="0.7643" stop-color="#EF4D2D"/>
<stop offset="0.9115" stop-color="#EE2F2D"/>
<stop offset="1" stop-color="#ED1F2D"/>
</linearGradient>
<linearGradient id="paint3_linear_15_1838" x1="446.231" y1="691.034" x2="446.231" y2="835.573" gradientUnits="userSpaceOnUse">
<stop stop-color="#FFE500"/>
<stop offset="0.1097" stop-color="#FCCD13"/>
<stop offset="0.3557" stop-color="#F59927"/>
<stop offset="0.5766" stop-color="#F2712B"/>
<stop offset="0.7643" stop-color="#EF4D2D"/>
<stop offset="0.9115" stop-color="#EE2F2D"/>
<stop offset="1" stop-color="#ED1F2D"/>
</linearGradient>
<linearGradient id="paint4_linear_15_1838" x1="541.683" y1="691.034" x2="541.683" y2="835.573" gradientUnits="userSpaceOnUse">
<stop stop-color="#FFE500"/>
<stop offset="0.1097" stop-color="#FCCD13"/>
<stop offset="0.3557" stop-color="#F59927"/>
<stop offset="0.5766" stop-color="#F2712B"/>
<stop offset="0.7643" stop-color="#EF4D2D"/>
<stop offset="0.9115" stop-color="#EE2F2D"/>
<stop offset="1" stop-color="#ED1F2D"/>
</linearGradient>
<linearGradient id="paint5_linear_15_1838" x1="621.093" y1="691.034" x2="621.093" y2="835.573" gradientUnits="userSpaceOnUse">
<stop stop-color="#FFE500"/>
<stop offset="0.1097" stop-color="#FCCD13"/>
<stop offset="0.3557" stop-color="#F59927"/>
<stop offset="0.5766" stop-color="#F2712B"/>
<stop offset="0.7643" stop-color="#EF4D2D"/>
<stop offset="0.9115" stop-color="#EE2F2D"/>
<stop offset="1" stop-color="#ED1F2D"/>
</linearGradient>
<linearGradient id="paint6_linear_15_1838" x1="723.922" y1="691.034" x2="723.922" y2="835.573" gradientUnits="userSpaceOnUse">
<stop stop-color="#FFE500"/>
<stop offset="0.1097" stop-color="#FCCD13"/>
<stop offset="0.3557" stop-color="#F59927"/>
<stop offset="0.5766" stop-color="#F2712B"/>
<stop offset="0.7643" stop-color="#EF4D2D"/>
<stop offset="0.9115" stop-color="#EE2F2D"/>
<stop offset="1" stop-color="#ED1F2D"/>
</linearGradient>
<linearGradient id="paint7_linear_15_1838" x1="830.683" y1="688.651" x2="830.683" y2="838.823" gradientUnits="userSpaceOnUse">
<stop stop-color="#FFE500"/>
<stop offset="0.1097" stop-color="#FCCD13"/>
<stop offset="0.3557" stop-color="#F59927"/>
<stop offset="0.5766" stop-color="#F2712B"/>
<stop offset="0.7643" stop-color="#EF4D2D"/>
<stop offset="0.9115" stop-color="#EE2F2D"/>
<stop offset="1" stop-color="#ED1F2D"/>
</linearGradient>
<linearGradient id="paint8_linear_15_1838" x1="962.935" y1="691.034" x2="962.935" y2="835.573" gradientUnits="userSpaceOnUse">
<stop stop-color="#FFE500"/>
<stop offset="0.1097" stop-color="#FCCD13"/>
<stop offset="0.3557" stop-color="#F59927"/>
<stop offset="0.5766" stop-color="#F2712B"/>
<stop offset="0.7643" stop-color="#EF4D2D"/>
<stop offset="0.9115" stop-color="#EE2F2D"/>
<stop offset="1" stop-color="#ED1F2D"/>
</linearGradient>
<linearGradient id="paint9_linear_15_1838" x1="603.679" y1="164.513" x2="603.679" y2="645.575" gradientUnits="userSpaceOnUse">
<stop stop-color="#FFF33B"/>
<stop offset="0.2357" stop-color="#FFD431"/>
<stop offset="0.5869" stop-color="#F7AE27"/>
<stop offset="0.8527" stop-color="#F29722"/>
<stop offset="1" stop-color="#F08F21"/>
</linearGradient>
</defs>
</svg>