<?xml version="1.0" encoding="UTF-8"?>
<svg width="1200pt" height="1200pt" version="1.1" viewBox="0 0 1200 1200" xmlns="http://www.w3.org/2000/svg">
 <g fill="#343643">
  <path d="m816 475.2-122.4-302.4-50.398 112.8 7.1992-2.3984c0 2.3984-110.4 230.4-103.2 216 0-2.3984 50.398-153.6 48-144l-120-273.6-189.6 333.6-52.801-112.8-204 297.6v52.801l69.602-88.801v127.2l-36 64.801 115.2-108v24l21.602-38.398-38.398-69.602h24l-26.398-76.801 50.398-64.801 52.801 103.2 192-319.2v4.8008l-57.605 124.8 57.602 52.801-26.398-57.602 64.801 79.199-28.801-108 12 7.1992 4.8008-31.199 38.398 120c-79.199 338.4-50.398 220.8-57.602 247.2l38.398-57.602 122.4-127.2 33.602 45.602 2.3984-4.8008 14.398-43.199 110.4 153.6 36-43.199 81.602 165.6 26.398-24 91.199 103.2v50.398l36 33.602h134.4l-285.59-458.4zm79.199 170.4-2.3984-43.199 40.801 36c-2.3984-2.3984-36-50.398-43.199-57.602l-4.8008-79.199 88.801 175.2z"/>
  <path d="m684 564-36-45.602v64.801l-76.801 50.402 38.402 26.398z"/>
  <path d="m410.4 607.2v76.801l-86.398 81.602h129.6l110.4-120c-7.1992 4.8008-124.8 76.801-120 74.398v-74.398z"/>
  <path d="m19.199 787.2c2.3984 0 117.6 7.1992 360 86.398 31.199 9.6016 352.8 117.6 355.2 117.6-79.199-40.801-148.8-88.801-343.2-153.6-252-76.797-369.6-50.398-372-50.398z"/>
  <path d="m489.6 832.8s7.1992-9.6016 24-19.199c86.398-57.602 218.4 9.6016 300 50.398 86.398 45.602 211.2 110.4 314.4 108 19.199 0 31.199-4.8008 31.199-4.8008-12-4.8008-36 24-326.4-134.4-292.8-144-331.2-4.8008-343.2 0z"/>
  <path d="m278.4 1106.4c-7.1992 4.8008-9.6016 7.1992-9.6016 7.1992 0.003906 0.003906 2.4023-2.3984 9.6016-7.1992 88.801-33.602 729.6-21.602 648-108l-2.3984-2.3984c-124.8-72-146.4-79.199-292.8-141.6 2.3984 2.3984 223.2 132 256.8 153.6-96 24-525.6 48-609.6 98.398zm624-84v0z"/>
 </g>
</svg>
